# xmcd
#
# Track frame offsets:
#	150
#	12115
#	23332
#	38977
#	51000
#	62235
#	75995
#	87282
#	103402
#	116437
#
# Disc length: 1730 seconds
#
# Revision: 2
# Processed by: cddbd v1.5.2PL0 Copyright (c) Steve Scherf et al.
# Submitted via: dBpowerAMP V4.0
#
DISCID=6f06c00a
DTITLE=George Strait - Strait from the Heart
DYEAR=1982
DGENRE=country
TTITLE0=Fool Hearted Memory
TTITLE1=Honky Tonk Crazy
TTITLE2=The Only Thing I Have Left
TTITLE3=The Steal Of The Night
TTITLE4=I Can't See Texas From Here
TTITLE5=Marina Del Ray
TTITLE6=Lover In Disguise
TTITLE7=Heartbroke
TTITLE8=Amarillo By Morning
TTITLE9=A Fire I Can't Put Out
EXTD=
EXTT0=
EXTT1=
EXTT2=
EXTT3=
EXTT4=
EXTT5=
EXTT6=
EXTT7=
EXTT8=
EXTT9=
PLAYORDER=
